<svg xmlns="http://www.w3.org/2000/svg" width="2500" height="2500" viewBox="0 0 256 256" preserveAspectRatio="xMidYMid">
	<path style="fill:#323330;" stroke="null" id="svg_2" d="m5.62395,182.95548l28.41249,-17.19543c5.48235,9.71884 10.46868,17.94237 22.42977,17.94237c11.46507,0 18.6951,-4.4845 18.6951,-21.9294l0,-118.6363l34.89124,0l0,119.12942c0,36.13855 -21.18391,52.58849 -52.09102,52.58849c-27.91212,0 -44.11406,-14.45571 -52.33903,-31.90205m123.38187,-3.73612l28.40959,-16.4485c7.47949,12.21346 17.19978,21.18536 34.39522,21.18536c14.45861,0 23.67708,-7.22858 23.67708,-17.19833c0,-11.96254 -9.47083,-16.20049 -25.42186,-23.1767l-8.721,-3.74192c-25.17385,-10.71379 -41.87181,-24.1731 -41.87181,-52.58559c0,-26.17024 19.93806,-46.10975 51.09318,-46.10975c22.18176,0 38.13279,7.7275 49.59641,27.91502l-27.16809,17.44779c-5.98272,-10.71669 -12.46002,-14.95318 -22.42977,-14.95318c-10.21922,0 -16.69941,6.4802 -16.69941,14.95318c0,10.46723 6.4802,14.70662 21.43338,21.18681l8.72245,3.73757c29.6598,12.71238 46.35776,25.67132 46.35776,54.8293c0,31.40603 -24.67347,48.60146 -57.82138,48.60146c-32.39952,0 -53.33543,-15.4521 -63.55319,-35.64107" />
</svg>
