<svg xmlns="http://www.w3.org/2000/svg" id="Layer_1" viewBox="0 0 400 400" width="2500" height="2500">
	<style>
		.st1 {
		fill: #fff;
		}
	</style>
	<path stroke="null" id="svg_2" d="m10.21945,99.71773l0,22.13057l70.6006,0l0,200.94016l50.09927,0l0,-200.94016l70.6006,0l0,-21.72326c0,-12.21933 0,-22.13057 -0.54308,-22.40211c0,-0.40731 -43.03921,-0.54308 -95.3108,-0.54308l-95.03926,0.40731l0,22.26634l-0.40731,-0.13577zm317.29537,-22.67365c13.84858,3.25849 24.43867,9.50393 33.94259,19.41516c5.0235,5.43082 12.49087,14.93474 13.03396,17.37861c0,0.81462 -23.48827,16.69976 -37.74416,25.52483c-0.54308,0.40731 -2.71541,-1.90079 -4.88773,-5.43082c-7.06006,-10.04701 -14.25589,-14.39166 -25.52483,-15.20628c-16.29245,-1.08616 -27.15408,7.46737 -27.15408,21.72326c0,4.34465 0.81462,6.78852 2.44387,10.31855c3.6658,7.46737 10.45432,11.94779 31.49873,21.18018c38.83033,16.69976 55.66585,27.69716 65.84863,43.44652c11.54048,17.65015 14.12012,45.34731 6.38121,66.12017c-8.6893,22.67365 -29.86948,38.01571 -60.14628,43.03921c-9.50393,1.62924 -31.22719,1.3577 -41.40996,-0.40731c-21.72326,-4.07311 -42.49613,-14.93474 -55.25854,-28.91909c-5.0235,-5.43082 -14.6632,-19.95825 -14.12012,-20.90864l5.15927,-3.25849l20.36556,-11.81202l15.34205,-8.96084l3.53003,4.75196c4.48042,7.06006 14.52743,16.56399 20.36556,19.82247c17.65015,9.09662 41.27419,7.87468 52.95045,-2.71541c5.0235,-4.61619 7.19583,-9.50393 7.19583,-16.29245c0,-6.24544 -0.95039,-9.09662 -4.07311,-13.84858c-4.34465,-5.9739 -13.03396,-10.86163 -37.47262,-21.72326c-28.10447,-11.94779 -40.05226,-19.55093 -51.18543,-31.22719c-6.38121,-7.06006 -12.21933,-18.05746 -14.93474,-27.15408c-2.03656,-7.87468 -2.71541,-27.15408 -0.81462,-34.89299c5.83813,-27.15408 26.33945,-46.16193 55.66585,-51.59274c9.50393,-1.90079 31.90604,-1.08616 41.27419,1.3577l-0.27154,0.27154z" class="st1" />
</svg>
